<svg width="117" height="138" viewBox="0 0 117 138" fill="none" xmlns="http://www.w3.org/2000/svg">
<path d="M96.5729 101.656C96.5729 101.656 101.147 103.435 102.926 104.451C103.181 104.705 103.181 104.96 102.926 105.214C95.3022 112.33 87.9322 116.904 76.2418 116.904C67.3469 116.904 63.5348 109.534 63.5348 101.656V50.8279H63.789L96.5729 45.7451V40.6623L94.0316 38.1209H63.5348V33.0381L60.9934 30.4967V30.2426C68.1093 28.9719 73.7004 22.8725 73.7004 15.2484C73.7004 6.86176 66.8386 0 58.452 0C50.0654 0 43.2037 6.86176 43.2037 15.2484C43.2037 22.8725 48.7948 28.9719 55.9107 30.2426V30.4967L53.3693 33.0381V38.1209H22.8725L20.3311 40.6623V45.7451L53.3693 50.8279V101.656C53.3693 109.534 49.5572 116.904 40.6623 116.904C28.9719 116.904 21.6018 112.33 13.9777 105.214C13.7235 104.96 13.7235 104.705 13.9777 104.451C15.7566 103.435 20.3311 101.656 20.3311 101.656C17.2815 99.6226 4.57451 91.4902 0 83.866C0 83.866 0 85.645 0 86.4074C0.254139 91.4902 1.2707 104.451 7.62418 114.363C7.62418 114.363 9.91143 109.788 10.4197 109.026C10.6739 108.772 10.928 108.772 11.1821 109.026C12.9611 111.059 21.6018 119.446 35.8336 126.053C49.0489 131.898 56.4189 136.219 58.452 137.235C60.4852 135.965 67.8552 131.898 81.0704 126.053C95.3023 119.446 103.943 111.059 105.722 109.026C105.976 108.772 106.23 108.772 106.484 109.026C106.993 109.788 109.28 114.363 109.28 114.363C115.633 104.451 116.65 91.4902 116.904 86.4074C116.904 85.645 116.904 83.866 116.904 83.866C112.33 91.4902 99.6226 99.6226 96.5729 101.656ZM48.2865 15.2484C48.2865 9.6573 52.861 5.08279 58.452 5.08279C64.0431 5.08279 68.6176 9.6573 68.6176 15.2484C68.6176 19.8229 65.5679 23.635 61.5017 24.9057L63.5348 22.8725C63.5348 22.8725 63.5348 17.7898 58.1979 17.7898C52.861 17.7898 53.3693 22.8725 53.3693 22.8725L55.4024 24.9057C51.3361 23.635 48.2865 19.8229 48.2865 15.2484Z" fill="white"/>
</svg>
