<svg width="172" height="24" viewBox="0 0 172 24" fill="none" xmlns="http://www.w3.org/2000/svg">
<g clip-path="url(#clip0_15_1534)">
<mask id="mask0_15_1534" style="mask-type:luminance" maskUnits="userSpaceOnUse" x="0" y="0" width="172" height="24">
<path d="M172 0H0V24H172V0Z" fill="white"/>
</mask>
<g mask="url(#mask0_15_1534)">
<path d="M4.93136 0.264648H0V23.7516H13.0032V19.5335H4.93136V0.264648Z" fill="white"/>
<path d="M20.8048 13.7435H27.9682V9.63617H20.8048V4.50619H29.2511V0.271484H15.8735V23.7585H29.2837V19.5403H20.8048V13.7435Z" fill="white"/>
<path d="M78.1756 23.7552H83.0874L76.738 0.271484H71.9206L65.6868 23.4987L65.6201 23.7486H70.4945L71.3085 20.3082H77.3616L78.1756 23.7552ZM72.3146 16.0238L74.3204 7.55936L76.3326 16.0238H72.3146Z" fill="white"/>
<path d="M64.8777 0.271484H50.2139V4.55253H55.0443V23.7618H60.0359V4.55253H64.8777V0.271484Z" fill="white"/>
<path d="M47.8875 14.3374C47.6241 13.6118 47.2218 12.9465 46.7039 12.3798C46.1671 11.8057 45.5406 11.3259 44.8496 10.9599C44.0971 10.5586 43.3109 10.2264 42.5003 9.96703L39.7635 9.05853C39.3972 8.92945 39.0081 8.79541 38.606 8.66468C38.3145 8.57508 38.0371 8.44357 37.7822 8.27414C37.5744 8.12699 37.4019 7.93411 37.2775 7.70985C37.1411 7.41026 37.0785 7.08139 37.0952 6.7517C37.0951 6.50179 37.1508 6.25511 37.258 6.03019C37.3728 5.7928 37.5399 5.58554 37.7464 5.42452C38.0309 5.20571 38.3535 5.04345 38.6972 4.94628C39.1899 4.80344 39.7006 4.73486 40.2129 4.74273C40.5463 4.74386 40.8781 4.79005 41.1995 4.88009C41.5122 4.96442 41.8116 5.0937 42.0884 5.26401C42.3522 5.43769 42.5796 5.66264 42.7575 5.92594C42.8487 6.05336 43.0001 6.38102 43.0001 7.14886V8.17982H47.7605V7.1472C47.7738 6.193 47.608 5.24497 47.2721 4.35385L47.2477 4.30255C46.9468 3.6919 46.571 3.12251 46.1292 2.608C45.6758 2.08424 45.1492 1.63096 44.5663 1.26263C43.9587 0.883012 43.3008 0.59379 42.6126 0.40377C41.8558 0.19667 41.0748 0.0953457 40.291 0.102591C39.1696 0.0865764 38.0531 0.25764 36.9861 0.608969C36.0571 0.916658 35.1952 1.40382 34.448 2.04371C33.7518 2.64656 33.1958 3.3988 32.8199 4.24629C32.4513 5.08951 32.2632 6.00274 32.268 6.92546C32.2554 7.75441 32.3803 8.57959 32.6376 9.36633C32.8761 10.0703 33.244 10.7217 33.7219 11.2859C34.1926 11.8343 34.7513 12.2975 35.3743 12.6561C36.0111 13.0215 36.6861 13.3135 37.3866 13.5266L40.3578 14.3805C40.7322 14.5029 41.1246 14.6469 41.5251 14.8091C41.8698 14.9474 42.195 15.1316 42.4922 15.3568C42.7461 15.5489 42.9606 15.7894 43.1238 16.0651C43.2705 16.3422 43.3408 16.6543 43.3273 16.9686C43.334 17.2868 43.2718 17.6026 43.145 17.8937C43.0251 18.1516 42.8486 18.3781 42.6289 18.5556C42.3529 18.7678 42.0396 18.9245 41.7058 19.0173C41.2554 19.1442 40.7894 19.205 40.322 19.1977C39.8219 19.2038 39.3233 19.1432 38.8388 19.0173C38.4699 18.9249 38.1211 18.7639 37.8099 18.5424C37.5634 18.362 37.363 18.1242 37.2254 17.849C37.1766 17.7514 37.0154 17.3393 37.0154 16.1429V15.3899H32.2778V16.1412C32.2849 17.0403 32.4008 17.9351 32.6229 18.8055L32.6311 18.8353C32.8316 19.478 33.1048 20.095 33.4451 20.6738C33.8316 21.3235 34.3321 21.8956 34.9217 22.3617C35.5875 22.8803 36.3397 23.2727 37.1424 23.5201C38.1271 23.8156 39.1505 23.9563 40.1771 23.9371C41.2622 23.9473 42.3411 23.7704 43.368 23.4142C44.3056 23.0897 45.1757 22.5909 45.9338 21.943C46.6568 21.3196 47.243 20.549 47.6547 19.6809C48.073 18.7886 48.2868 17.8114 48.2799 16.823C48.2931 15.9782 48.1586 15.1377 47.8826 14.3407L47.8875 14.3374Z" fill="white"/>
<path d="M113.522 0.248047H111.243L103.635 23.7549H106.448L108.273 18.054H116.529L118.372 23.7566H121.167L113.553 0.344027L113.522 0.248047ZM109.126 15.4046L112.383 5.21254L115.676 15.4046H109.126Z" fill="white"/>
<path d="M130.841 9.8593L124.725 0.248047H122.455V23.7516H125.145L125.143 5.87116L130.035 13.5727L130.076 13.6373H131.6L136.484 5.87778V23.7516H139.174V0.248047H136.898L130.841 9.8593Z" fill="white"/>
<path d="M170.131 13.4041C169.014 12.3897 167.23 11.3554 164.828 10.3278C163.28 9.68241 162.139 9.15948 161.437 8.77225C160.885 8.48562 160.402 8.07747 160.024 7.57747C159.731 7.16872 159.583 6.6127 159.583 5.92264C159.583 4.84534 159.908 4.06426 160.592 3.53803C161.34 2.96215 162.479 2.6709 163.977 2.6709C165.673 2.6709 166.981 3.03165 167.862 3.74488C168.695 4.4184 169.099 5.2938 169.099 6.41909V8.33869H171.787V6.35289C171.787 4.40185 171.077 2.82645 169.67 1.66972C168.329 0.562642 166.442 0 164.068 0C161.859 0 160.114 0.496449 158.881 1.49762C157.579 2.54016 156.928 4.05102 156.928 5.98552C156.928 7.20016 157.206 8.22781 157.755 9.03868C158.312 9.84341 159.043 10.5088 159.891 10.9848C161.083 11.6434 162.309 12.2378 163.563 12.7654C164.811 13.2886 166.021 13.9002 167.184 14.5956C167.956 15.0821 168.516 15.5885 168.851 16.0965C169.169 16.6041 169.329 17.1966 169.312 17.7977C169.312 18.8998 168.939 19.7322 168.172 20.3428C167.358 21.0048 166.103 21.3357 164.465 21.3357C162.715 21.3357 161.343 20.9733 160.386 20.2568C159.965 19.9634 159.624 19.5671 159.393 19.1043C159.163 18.6416 159.051 18.1273 159.068 17.609V15.3337H156.441V17.6736C156.441 19.6147 157.195 21.1851 158.679 22.3419C160.092 23.4423 162.018 23.9967 164.404 23.9967C166.738 23.9967 168.596 23.4374 169.921 22.3419C171.302 21.1951 172 19.6461 172 17.7365C172 15.989 171.373 14.5327 170.131 13.4041Z" fill="white"/>
<path d="M141.593 23.7516H155.576V21.0824H144.281V13.3063H153.476V10.6652H144.281V2.88916L155.576 2.89081V0.248047H141.593V23.7516Z" fill="white"/>
<path d="M103.648 11.4084H95.2783V14.0562H100.96V16.8363C100.96 18.218 100.535 19.2821 99.6578 20.093C98.7803 20.9038 97.569 21.3291 96.0761 21.3291C94.5832 21.3291 93.3459 20.9038 92.4521 20.0648C91.5583 19.2258 91.1366 18.1568 91.1366 16.775V7.22501C91.1366 5.84323 91.5664 4.76759 92.4521 3.93521C93.3377 3.10283 94.5685 2.67092 96.0761 2.67092C97.5837 2.67092 98.7689 3.09125 99.6578 3.91866C100.547 4.74608 100.96 5.81179 100.96 7.19523V8.35361H103.648V7.22501C103.668 5.91206 103.342 4.61754 102.705 3.47517C102.069 2.36237 101.126 1.46323 99.9932 0.888669C98.7644 0.303391 97.4241 0 96.0671 0C94.7102 0 93.3698 0.303391 92.1411 0.888669C91.0078 1.46269 90.0619 2.35746 89.4174 3.46524C88.7649 4.61713 88.4323 5.92748 88.4552 7.25645V16.7436C88.4323 18.0726 88.7649 19.3829 89.4174 20.5348C90.0642 21.6431 91.0123 22.5379 92.1476 23.1114C93.3763 23.6967 94.7167 24 96.0736 24C97.4306 24 98.771 23.6967 99.9997 23.1114C101.132 22.5377 102.075 21.6398 102.712 20.5282C103.352 19.3639 103.675 18.0473 103.648 16.7138V11.4084Z" fill="white"/>
</g>
</g>
<defs>
<clipPath id="clip0_15_1534">
<rect width="172" height="24" fill="white"/>
</clipPath>
</defs>
</svg>
