<svg width="29" height="36" viewBox="0 0 29 36" fill="none" xmlns="http://www.w3.org/2000/svg">
<g clip-path="url(#clip0_8_265)">
<mask id="mask0_8_265" style="mask-type:luminance" maskUnits="userSpaceOnUse" x="0" y="0" width="29" height="36">
<path d="M29 0H0V36H29V0Z" fill="white"/>
</mask>
<g mask="url(#mask0_8_265)">
<path d="M7.21168 7.2388H9.11429V2.86469H2.854V13.8509L7.21168 17.0289V7.2388Z" fill="white"/>
<path d="M0 0V25.4315L14.5 36L29 25.4315V0H0ZM28.0487 24.9417L14.5 34.8213L0.951311 24.9417V0.952406H28.0487V24.9417Z" fill="white"/>
<path d="M17.9833 7.2388V2.86469H11.0144V7.2388H12.32V9.14855H9.11182V20.749L12.32 23.0766V25.4091L7.21168 21.694V19.3615L2.854 16.1835V23.9668L14.5001 32.4639L26.1462 23.9668V16.1835L21.7885 19.3615V21.694L16.6801 25.4091V23.0766L19.8883 20.749V9.14855H16.6801V7.2388H17.9857H17.9833ZM18.4787 14.0449L16.2615 15.8925L16.9477 18.7323L14.4976 17.1856L12.0475 18.7323L12.7337 15.8925L10.5164 14.0449L13.4175 13.8534L14.4952 11.1355L15.5728 13.8534L18.4738 14.0449H18.4787Z" fill="white"/>
<path d="M21.7884 17.0289L26.1461 13.8509V2.86469H19.8857V7.2388H21.7884V17.0289Z" fill="white"/>
</g>
</g>
<defs>
<clipPath id="clip0_8_265">
<rect width="29" height="36" fill="white"/>
</clipPath>
</defs>
</svg>
