<svg width="448" height="245" viewBox="0 0 448 245" fill="none" xmlns="http://www.w3.org/2000/svg">
<g clip-path="url(#clip0_11_1020)">
<path fill-rule="evenodd" clip-rule="evenodd" d="M80.8777 177.94L70.719 211.068H69.6799V177.94H56.0703V243.343H69.6682L80.1719 210.095H81.1994V243.339H94.7004V177.94H80.8777Z" fill="white"/>
<path fill-rule="evenodd" clip-rule="evenodd" d="M132.062 186.23C131.494 184.603 130.567 183.127 129.35 181.908C128.133 180.69 126.657 179.763 125.033 179.194C121.877 178.174 119.252 177.953 114.653 177.953H100.284V243.343H114.331V225.073C119.469 225.073 121.888 224.841 125.033 223.819C126.657 223.251 128.133 222.324 129.35 221.105C130.567 219.888 131.494 218.41 132.062 216.785C133.082 213.642 133.319 210.999 133.319 206.397V196.618C133.319 192.016 133.082 189.372 132.062 186.23ZM119.655 212.361C119.535 212.7 119.341 213.006 119.088 213.26C118.834 213.513 118.527 213.709 118.189 213.827C117.486 214.028 116.756 214.116 116.026 214.088H114.343V188.927H116.026C116.756 188.9 117.486 188.988 118.189 189.186C118.527 189.307 118.834 189.5 119.088 189.755C119.341 190.008 119.535 190.315 119.655 190.653C119.856 191.359 119.945 192.093 119.919 192.826V210.188C119.941 210.923 119.848 211.656 119.643 212.361H119.655Z" fill="white"/>
<path fill-rule="evenodd" clip-rule="evenodd" d="M33.1669 177.94L25.796 214.437H25.0632L17.6923 177.94H0V243.343H13.2954V206.245H14.4237L22.4459 243.343H28.4131L36.4392 206.245H37.5637V243.343H50.8592V177.94H33.1669Z" fill="white"/>
<path fill-rule="evenodd" clip-rule="evenodd" d="M288.653 178.166H266.416L256.688 243.568H270.461L272.011 231.985H283.074L284.624 243.568H298.397L288.653 178.166ZM273.531 220.684L276.866 191.97H278.211L281.546 220.684H273.531Z" fill="white"/>
<path fill-rule="evenodd" clip-rule="evenodd" d="M366.909 178.166H343.517L334.922 243.568H349.264L354.536 194.045H355.886L361.158 243.568H375.501L366.909 178.166Z" fill="white"/>
<path fill-rule="evenodd" clip-rule="evenodd" d="M185.597 177.94H170.475L162.787 203.971H161.406V177.94H147.359V243.568H161.406V215.935H162.787L170.475 243.568H185.597L174.957 209.83V209.722L185.597 177.94Z" fill="white"/>
<path fill-rule="evenodd" clip-rule="evenodd" d="M434.496 178.161L424.659 211.294H423.619V178.161H410.653V243.568H423.93L434.112 210.32H435.139V243.564H448V178.161H434.496Z" fill="white"/>
<path d="M440.637 165.947H418.016V173.796H440.637V165.947Z" fill="white"/>
<path fill-rule="evenodd" clip-rule="evenodd" d="M406.12 190.304V178.166H377.968V243.568H406.12V231.426H392.014V215.454H404.24V204.244H392.014V190.304H406.12Z" fill="white"/>
<path fill-rule="evenodd" clip-rule="evenodd" d="M219.446 186.738C218.853 184.989 217.894 183.385 216.635 182.033C215.378 180.682 213.846 179.612 212.146 178.895C209.376 177.731 206.403 177.13 203.4 177.13C200.397 177.13 197.422 177.731 194.654 178.895C192.954 179.612 191.424 180.682 190.166 182.033C188.909 183.387 187.95 184.989 187.357 186.738C185.915 190.813 185.91 194.274 185.91 205.233V216.276C185.91 227.232 185.91 230.692 187.357 234.768C187.95 236.516 188.907 238.119 190.165 239.472C191.424 240.824 192.954 241.893 194.654 242.609C197.422 243.775 200.397 244.375 203.4 244.375C206.403 244.375 209.376 243.775 212.146 242.609C213.846 241.893 215.378 240.825 216.637 239.472C217.896 238.121 218.853 236.516 219.446 234.768C220.885 230.692 220.893 227.232 220.893 216.276V205.233C220.893 194.274 220.885 190.813 219.446 186.738ZM206.837 226.458C206.837 228.939 206.736 229.727 206.422 230.428C206.162 231.08 205.659 231.607 205.022 231.9C204.514 232.132 203.96 232.252 203.4 232.252C202.84 232.252 202.286 232.132 201.778 231.9C201.141 231.605 200.64 231.08 200.378 230.428C200.067 229.727 199.963 228.939 199.963 226.458C199.963 225.221 199.963 210.774 199.963 210.774C199.963 210.774 199.963 196.327 199.963 195.086C199.963 192.605 200.067 191.817 200.378 191.116C200.64 190.464 201.141 189.937 201.778 189.644C202.286 189.412 202.84 189.292 203.4 189.292C203.96 189.292 204.514 189.412 205.022 189.644C205.659 189.937 206.162 190.464 206.422 191.116C206.736 191.817 206.837 192.605 206.837 195.086C206.837 196.327 206.837 210.774 206.837 210.774C206.837 210.774 206.837 225.201 206.837 226.458Z" fill="white"/>
<path fill-rule="evenodd" clip-rule="evenodd" d="M257.007 186.455C256.439 184.829 255.511 183.351 254.295 182.134C253.077 180.916 251.602 179.989 249.976 179.42C246.832 178.398 244.195 178.166 239.6 178.166H225.554V243.568H239.6V224.337C244.195 224.337 246.832 224.103 249.976 223.08C251.602 222.511 253.079 221.584 254.295 220.366C255.512 219.149 256.439 217.671 257.007 216.044C258.029 212.905 258.263 210.258 258.263 205.656V196.842C258.263 192.24 258.029 189.595 257.007 186.455ZM244.909 211.619C244.789 211.959 244.595 212.266 244.343 212.519C244.088 212.774 243.781 212.967 243.443 213.086C242.741 213.288 242.013 213.376 241.283 213.347H239.6V189.151H241.299C242.027 189.126 242.757 189.212 243.459 189.412C243.797 189.532 244.104 189.726 244.357 189.979C244.611 190.234 244.805 190.54 244.925 190.879C245.127 191.584 245.216 192.319 245.187 193.052V209.451C245.211 210.184 245.117 210.916 244.909 211.619Z" fill="white"/>
<path fill-rule="evenodd" clip-rule="evenodd" d="M332.536 208.26C331.968 206.636 331.04 205.159 329.822 203.944C328.606 202.729 327.131 201.803 325.507 201.236C322.362 200.215 319.726 199.978 315.128 199.978V189.928H330.989V178.166H301.08V243.568H315.128C319.726 243.568 322.362 243.331 325.507 242.311C327.131 241.743 328.608 240.816 329.826 239.597C331.042 238.379 331.97 236.902 332.536 235.275C333.557 232.132 333.794 229.49 333.794 224.888V218.647C333.794 214.042 333.557 211.403 332.536 208.26ZM320.699 228.683C320.726 229.414 320.638 230.146 320.44 230.852C320.318 231.19 320.125 231.496 319.872 231.751C319.618 232.004 319.312 232.198 318.974 232.319C318.27 232.519 317.541 232.607 316.81 232.579H315.128V210.956H316.81C317.541 210.927 318.27 211.015 318.974 211.216C319.312 211.336 319.619 211.529 319.872 211.784C320.126 212.037 320.32 212.345 320.44 212.682C320.638 213.389 320.726 214.12 320.699 214.852V228.683Z" fill="white"/>
<path d="M185.419 22.9455H195.422V0H162.491V57.6294L185.419 74.2963V22.9455Z" fill="white"/>
<path d="M242.074 22.9455V0.00390625H205.434V22.9455H212.293V32.9612H195.437V93.7998L212.293 106.008V118.239L185.419 98.759V86.5238L162.491 69.8377V110.672L223.754 155.236L285.016 110.672V69.853L262.098 86.5393V98.7746L235.216 118.255V106.008L252.074 93.7998V32.9612H235.219V22.9455H242.074ZM244.683 58.6461L233.016 68.3475L236.646 83.2254L223.742 75.1189L210.869 83.2371L214.486 68.3475L202.824 58.6461L218.082 57.6256L223.758 43.3647L229.434 57.6567L244.696 58.6772L244.683 58.6461Z" fill="white"/>
<path d="M262.101 74.2963L285.019 57.6294V0H252.09V22.9455H262.101V74.2963Z" fill="white"/>
</g>
<defs>
<clipPath id="clip0_11_1020">
<rect width="448" height="245" fill="white"/>
</clipPath>
</defs>
</svg>
